<?xml version="1.0" encoding="UTF-8"?>
<!DOCTYPE svg PUBLIC "-//W3C//DTD SVG 1.1//EN" "http://www.w3.org/Graphics/SVG/1.1/DTD/svg11.dtd">
<!-- Creator: CorelDRAW -->
<svg xmlns="http://www.w3.org/2000/svg" xml:space="preserve" width="500px" height="120px" style="shape-rendering:geometricPrecision; text-rendering:geometricPrecision; image-rendering:optimizeQuality; fill-rule:evenodd; clip-rule:evenodd"
viewBox="0 0 500 120"
 xmlns:xlink="http://www.w3.org/1999/xlink">
 <defs>
  <style type="text/css">
   <![CDATA[
    .fil0 {fill:#003399}
    .fil1 {fill:#003399;fill-rule:nonzero}
   ]]>
  </style>
 </defs>
 <g id="Layer_x0020_1">
  <metadata id="CorelCorpID_0Corel-Layer"/>
  <path id="_875060776" class="fil0" d="M167.625 49.1635l-48.1631 0c0.422836,3.8693 1.47048,6.72994 3.12284,8.62444 2.31851,2.72127 5.36104,4.07127 9.08861,4.07127 2.35749,0 4.61458,-0.584648 6.73112,-1.77402 1.30985,-0.745278 2.70001,-2.05512 4.19056,-3.94962l23.6788 2.1756c-3.62718,6.30829 -7.97955,10.8225 -13.0985,13.5626 -5.11773,2.72127 -12.4536,4.09135 -22.0264,4.09135 -8.30199,0 -14.8311,-1.1693 -19.6075,-3.5067 -4.75513,-2.33741 -8.70475,-6.06616 -11.8288,-11.1638 -3.12403,-5.09883 -4.69608,-11.0835 -4.69608,-17.9764 0,-9.79373 3.1441,-17.7331 9.41223,-23.7792 6.28703,-6.06498 14.9516,-9.10869 26.015,-9.10869 8.96814,0 16.0619,1.37008 21.241,4.09135 5.19923,2.70119 9.16893,6.64963 11.8689,11.7886 2.72009,5.15907 4.07009,11.8689 4.07009,20.132l0 2.72009 0.00118111 0.00118111zm-76.1046 -10.4256c0.310631,-0.0791341 0.620081,-0.153544 0.92953,-0.230316 -0.0744097,0.681498 -0.131103,1.36772 -0.172441,2.06103 -30.4064,9.36381 -52.6785,24.6544 -54.6557,37.4363 -2.12245,0.69449 -3.65434,2.68938 -3.65434,5.04332 0,2.92914 2.37402,5.30435 5.30435,5.30435 0.654333,0 1.2815,-0.119292 1.86142,-0.336615 10.1563,9.90003 40.1505,11.602 73.4542,3.19253 38.9033,-9.82208 67.5853,-29.7202 64.062,-44.4438 -0.933074,-3.89765 -4.03112,-7.04294 -8.80633,-9.3768 -0.0980318,-0.685042 -0.209056,-1.36772 -0.335434,-2.04686 9.19727,2.82048 15.1926,7.34884 16.6512,13.4457 4.22954,17.6776 -31.2828,41.8419 -79.3195,53.9695 -48.0379,12.13 -90.4089,7.62995 -94.6385,-10.0477 -4.23072,-17.6788 31.2816,-41.843 79.3184,-53.9706l0.00118111 0zm-52.2486 40.2143c2.26182,0 4.09489,1.83308 4.09489,4.09608 0,2.26182 -1.83308,4.09608 -4.09489,4.09608 -2.263,0 -4.09608,-1.83426 -4.09608,-4.09608 0,-2.263 1.83308,-4.09608 4.09608,-4.09608zm103.929 -41.295c-0.484253,-4.65592 -1.73386,-7.98073 -3.74883,-9.97562 -2.03505,-2.01615 -4.6949,-3.02245 -8.00081,-3.02245 -3.82796,0 -6.87168,1.53071 -9.16893,4.55316 -1.4504,1.89449 -2.37757,4.69608 -2.76024,8.44491l23.6788 0z"/>
  <g id="_425250224">
   <path id="_31854400" class="fil1" d="M221.429 64.8711l-13.6784 0c0.119292,1.09961 0.41693,1.91103 0.887011,2.44961 0.657876,0.772443 1.52245,1.1563 2.58072,1.1563 0.669687,0 1.31103,-0.165355 1.91221,-0.503151 0.372048,-0.212599 0.766538,-0.584648 1.18937,-1.12323l6.7264 0.6189c-1.03111,1.79174 -2.26772,3.07324 -3.72048,3.85277 -1.45394,0.772443 -3.53741,1.16103 -6.25632,1.16103 -2.35867,0 -4.21182,-0.331891 -5.56892,-0.995672 -1.35119,-0.663782 -2.47324,-1.72323 -3.35907,-3.17127 -0.888192,-1.44804 -1.33465,-3.14765 -1.33465,-5.10592 0,-2.7815 0.892916,-5.03624 2.67402,-6.75356 1.78465,-1.72323 4.24608,-2.58662 7.389,-2.58662 2.54646,0 4.56143,0.389765 6.03191,1.16221 1.47756,0.765357 2.60434,1.88859 3.37088,3.34844 0.773624,1.46457 1.15748,3.37088 1.15748,5.71773l0 0.772443 -0.00118111 0zm-6.93664 -3.26812c-0.137008,-1.32166 -0.492521,-2.26654 -1.06418,-2.83347 -0.578742,-0.572836 -1.33347,-0.858664 -2.27245,-0.858664 -1.0878,0 -1.95119,0.435828 -2.60434,1.29331 -0.412206,0.538584 -0.675593,1.33347 -0.784254,2.39883l6.72522 0 0 0z"/>
   <path id="_318544001" class="fil1" d="M223.359 67.1541l6.77601 -0.641341c0.279922,0.807877 0.669687,1.38662 1.17284,1.72914 0.504332,0.348426 1.17402,0.520868 2.01497,0.520868 0.916538,0 1.6252,-0.194883 2.12953,-0.589372 0.388584,-0.285828 0.583466,-0.653152 0.583466,-1.0878 0,-0.49134 -0.257481,-0.869294 -0.766538,-1.13859 -0.372048,-0.188977 -1.35119,-0.424017 -2.93623,-0.70512 -2.37048,-0.41693 -4.01812,-0.794884 -4.93939,-1.14922 -0.922444,-0.355513 -1.69961,-0.95079 -2.32914,-1.78583 -0.636616,-0.836223 -0.95079,-1.79174 -0.95079,-2.86773 0,-1.17402 0.343702,-2.18623 1.0252,-3.03426 0.680317,-0.851577 1.6193,-1.48701 2.81576,-1.90512 1.19646,-0.418112 2.79804,-0.62953 4.81301,-0.62953 2.12363,0 3.69214,0.165355 4.70553,0.486616 1.01339,0.325985 1.85434,0.829136 2.52875,1.51063 0.675593,0.681498 1.23662,1.60276 1.68898,2.76497l-6.47364 0.640159c-0.17126,-0.571655 -0.446458,-0.989767 -0.840948,-1.25906 -0.538584,-0.360237 -1.18465,-0.537403 -1.94528,-0.537403 -0.767719,0 -1.33465,0.137008 -1.68308,0.412206 -0.355513,0.274017 -0.527954,0.605907 -0.527954,0.995672 0,0.440553 0.22441,0.766538 0.670868,0.989767 0.446458,0.223229 1.41969,0.424017 2.91851,0.607089 2.26654,0.257481 3.95552,0.611813 5.05986,1.07008 1.11024,0.458269 1.95709,1.11024 2.54174,1.963 0.589372,0.846853 0.881105,1.77993 0.881105,2.79922 0,1.02992 -0.30945,2.0315 -0.933074,3.00473 -0.6189,0.973231 -1.59686,1.74567 -2.93151,2.31851 -1.33819,0.577561 -3.15828,0.863389 -5.45907,0.863389 -3.25159,0 -5.5701,-0.462994 -6.94963,-1.39016 -1.37835,-0.927168 -2.26536,-2.25001 -2.66103,-3.95552l0.00118111 0z"/>
   <path id="_3185440012" class="fil1" d="M244.706 63.2282c0,-2.713 0.916538,-4.9571 2.74843,-6.71341 1.83662,-1.76339 4.30867,-2.6445 7.42916,-2.6445 3.56576,0 6.26104,1.03583 8.08113,3.10277 1.46575,1.66536 2.19804,3.72048 2.19804,6.15829 0,2.73544 -0.909452,4.97954 -2.72481,6.73112 -1.81418,1.74567 -4.32639,2.62087 -7.53782,2.62087 -2.86182,0 -5.17443,-0.72638 -6.94254,-2.18032 -2.16851,-1.79764 -3.25159,-4.15513 -3.25159,-7.07483l0 0zm6.84097 -0.0165355c0,1.59095 0.32008,2.76379 0.967326,3.5197 0.640159,0.761813 1.44804,1.14449 2.42009,1.14449 0.985042,0 1.79174,-0.377954 2.42127,-1.12796 0.635435,-0.748821 0.95079,-1.94528 0.95079,-3.60474 0,-1.54016 -0.321261,-2.69056 -0.956696,-3.44647 -0.635435,-0.748821 -1.42441,-1.12678 -2.36339,-1.12678 -0.995672,0 -1.82008,0.382678 -2.46733,1.14449 -0.646065,0.766538 -0.97205,1.93465 -0.97205,3.49726z"/>
   <polygon id="_31854400123" class="fil1" points="268.683,47.4994 275.528,47.4994 275.528,72.0829 268.683,72.0829 "/>
   <path id="_318544001234" class="fil1" d="M298.651 72.0829l-6.37561 0 0 -2.88426c-0.95079,1.18465 -1.90631,2.0315 -2.87363,2.52993 -0.967326,0.503151 -2.15788,0.754727 -3.56576,0.754727 -1.87796,0 -3.34844,-0.559844 -4.41852,-1.68308 -1.06418,-1.12087 -1.59686,-2.85473 -1.59686,-5.18978l0 -11.3327 6.85632 0 0 9.79255c0,1.11615 0.206694,1.91221 0.6189,2.38111 0.418112,0.468899 0.995672,0.703939 1.74567,0.703939 0.818507,0 1.48229,-0.315355 2.00316,-0.938979 0.520868,-0.62953 0.778349,-1.75158 0.778349,-3.37088l0 -8.56892 6.82797 0 0 17.8064 0 0z"/>
   <path id="_3185440012345" class="fil1" d="M301.582 67.1541l6.77601 -0.641341c0.279922,0.807877 0.669687,1.38662 1.17284,1.72914 0.504332,0.348426 1.17402,0.520868 2.01615,0.520868 0.915357,0 1.62402,-0.194883 2.12835,-0.589372 0.389765,-0.285828 0.583466,-0.653152 0.583466,-1.0878 0,-0.49134 -0.257481,-0.869294 -0.766538,-1.13859 -0.372048,-0.188977 -1.35,-0.424017 -2.93623,-0.70512 -2.3693,-0.41693 -4.01812,-0.794884 -4.93939,-1.14922 -0.921263,-0.355513 -1.69961,-0.95079 -2.32914,-1.78583 -0.635435,-0.836223 -0.95079,-1.79174 -0.95079,-2.86773 0,-1.17402 0.343702,-2.18623 1.0252,-3.03426 0.680317,-0.851577 1.6193,-1.48701 2.81576,-1.90512 1.19646,-0.418112 2.79922,-0.62953 4.81419,-0.62953 2.12245,0 3.69096,0.165355 4.70435,0.486616 1.01339,0.325985 1.85434,0.829136 2.52993,1.51063 0.675593,0.681498 1.23544,1.60276 1.6878,2.76497l-6.47364 0.640159c-0.17126,-0.571655 -0.446458,-0.989767 -0.840948,-1.25906 -0.537403,-0.360237 -1.18465,-0.537403 -1.94528,-0.537403 -0.767719,0 -1.33465,0.137008 -1.68308,0.412206 -0.355513,0.274017 -0.526773,0.605907 -0.526773,0.995672 0,0.440553 0.223229,0.766538 0.669687,0.989767 0.446458,0.223229 1.41969,0.424017 2.91851,0.607089 2.26654,0.257481 3.95552,0.611813 5.05986,1.07008 1.11024,0.458269 1.95709,1.11024 2.54174,1.963 0.589372,0.846853 0.881105,1.77993 0.881105,2.79922 0,1.02992 -0.30945,2.0315 -0.933074,3.00473 -0.6189,0.973231 -1.59686,1.74567 -2.93032,2.31851 -1.33937,0.577561 -3.15946,0.863389 -5.46025,0.863389 -3.25159,0 -5.56892,-0.462994 -6.94845,-1.39016 -1.37953,-0.927168 -2.26654,-2.25001 -2.66103,-3.95552l0 0z"/>
   <path id="_31854400123456" class="fil1" d="M324.019 47.4994l6.82797 0 0 4.64765 -6.82797 0 0 -4.64765zm0 6.77719l6.82797 0 0 17.8064 -6.82797 0 0 -17.8064z"/>
   <path id="_318544001234567" class="fil1" d="M335.203 54.2765l6.35908 0 0 2.89607c0.949609,-1.18465 1.91103,-2.02678 2.88426,-2.53583 0.973231,-0.509057 2.15788,-0.766538 3.55395,-0.766538 1.88859,0 3.36615,0.56575 4.43623,1.6878 1.06536,1.12205 1.59686,2.85591 1.59686,5.20277l0 11.3221 -6.85632 0 0 -9.79373c0,-1.11615 -0.206694,-1.90631 -0.617718,-2.3693 -0.419293,-0.47008 -0.996854,-0.699215 -1.74686,-0.699215 -0.824412,0 -1.5,0.315355 -2.00906,0.94016 -0.514962,0.623624 -0.772443,1.75158 -0.772443,3.37088l0 8.55121 -6.82797 0 0 -17.8064 0 0z"/>
   <path id="_3185440012345678" class="fil1" d="M376.859 47.4994l0 24.5835 -6.38742 0 0 -2.63269c-0.898822,1.11615 -1.7126,1.87205 -2.4508,2.26654 -0.983861,0.509057 -2.07757,0.766538 -3.28466,0.766538 -2.42717,0 -4.28151,-0.921263 -5.56419,-2.76379 -1.27559,-1.84371 -1.91694,-4.08781 -1.91694,-6.72522 0,-2.95395 0.70512,-5.20868 2.12363,-6.77128 1.41378,-1.56851 3.21143,-2.35276 5.38584,-2.35276 1.06536,0 2.02678,0.183071 2.89607,0.538584 0.86457,0.360237 1.63111,0.892916 2.3067,1.60867l0 -8.51814 6.89175 0 0 0zm-6.84569 15.6319c0,-1.40315 -0.291733,-2.44489 -0.887011,-3.13111 -0.589372,-0.686223 -1.33937,-1.03111 -2.2441,-1.03111 -0.796065,0 -1.45985,0.333072 -1.99725,0.990948 -0.538584,0.657876 -0.806695,1.76339 -0.806695,3.32009 0,1.45394 0.279922,2.51812 0.829136,3.19371 0.55512,0.675593 1.24252,1.01339 2.05512,1.01339 0.8752,0 1.60158,-0.337796 2.18032,-1.01929 0.583466,-0.687404 0.870475,-1.79764 0.870475,-3.33662l0 0z"/>
   <path id="_31854400123456789" class="fil1" d="M380.178 63.2282c0,-2.713 0.915357,-4.9571 2.74725,-6.71341 1.8378,-1.76339 4.30986,-2.6445 7.42916,-2.6445 3.56576,0 6.26222,1.03583 8.08231,3.10277 1.46457,1.66536 2.19804,3.72048 2.19804,6.15829 0,2.73544 -0.910633,4.97954 -2.72481,6.73112 -1.81418,1.74567 -4.32757,2.62087 -7.53782,2.62087 -2.86182,0 -5.17443,-0.72638 -6.94254,-2.18032 -2.16969,-1.79764 -3.25159,-4.15513 -3.25159,-7.07483l0 0zm6.83979 -0.0165355c0,1.59095 0.321261,2.76379 0.967326,3.5197 0.641341,0.761813 1.44804,1.14449 2.42127,1.14449 0.985042,0 1.79174,-0.377954 2.42127,-1.12796 0.635435,-0.748821 0.949609,-1.94528 0.949609,-3.60474 0,-1.54016 -0.32008,-2.69056 -0.955515,-3.44647 -0.635435,-0.748821 -1.4256,-1.12678 -2.36339,-1.12678 -0.996854,0 -1.82127,0.382678 -2.46733,1.14449 -0.647246,0.766538 -0.973231,1.93465 -0.973231,3.49726z"/>
   <polygon id="_3185440012345678910" class="fil1" points="403.348,65.2431 410.645,65.2431 410.645,72.0829 403.348,72.0829 "/>
   <path id="_318544001234567891011" class="fil1" d="M428.051 65.1226l6.48427 0.738191c-0.355513,1.35119 -0.944885,2.5252 -1.75749,3.51497 -0.818507,0.989767 -1.86024,1.7563 -3.13111,2.3067 -1.26378,0.543309 -2.87836,0.817325 -4.83545,0.817325 -1.88859,0 -3.463,-0.177166 -4.71616,-0.525592 -1.25906,-0.355513 -2.34095,-0.921263 -3.24568,-1.71142 -0.910633,-0.79016 -1.6193,-1.71142 -2.12953,-2.7756 -0.514962,-1.05945 -0.772443,-2.46733 -0.772443,-4.22482 0,-1.83071 0.30945,-3.36025 0.938979,-4.57915 0.458269,-0.891735 1.08189,-1.69371 1.87678,-2.40355 0.796065,-0.709845 1.60867,-1.24252 2.44961,-1.58504 1.32874,-0.550395 3.03426,-0.824412 5.11183,-0.824412 2.9067,0 5.12246,0.520868 6.65081,1.5626 1.52245,1.03583 2.59843,2.55828 3.21025,4.56143l-6.42167 0.852759c-0.199607,-0.760632 -0.56575,-1.33347 -1.09843,-1.71733 -0.532679,-0.388584 -1.24252,-0.577561 -2.14135,-0.577561 -1.12678,0 -2.04331,0.4063 -2.74135,1.213 -0.698034,0.812601 -1.04646,2.03741 -1.04646,3.68033 0,1.46575 0.349607,2.57599 1.04055,3.33662 0.693309,0.761813 1.57441,1.13977 2.6504,1.13977 0.892916,0 1.64292,-0.229135 2.25591,-0.686223 0.605907,-0.458269 1.06418,-1.16221 1.36772,-2.113l0 0z"/>
   <path id="_31854400123456789101112" class="fil1" d="M436.836 63.2282c0,-2.713 0.915357,-4.9571 2.74725,-6.71341 1.83662,-1.76339 4.30986,-2.6445 7.42916,-2.6445 3.56576,0 6.26104,1.03583 8.08113,3.10277 1.46575,1.66536 2.19804,3.72048 2.19804,6.15829 0,2.73544 -0.909452,4.97954 -2.72363,6.73112 -1.81536,1.74567 -4.32757,2.62087 -7.539,2.62087 -2.86182,0 -5.17324,-0.72638 -6.94136,-2.18032 -2.16969,-1.79764 -3.25159,-4.15513 -3.25159,-7.07483l0 0zm6.83979 -0.0165355c0,1.59095 0.32008,2.76379 0.967326,3.5197 0.641341,0.761813 1.44804,1.14449 2.42127,1.14449 0.983861,0 1.79174,-0.377954 2.42009,-1.12796 0.636616,-0.748821 0.95079,-1.94528 0.95079,-3.60474 0,-1.54016 -0.32008,-2.69056 -0.955515,-3.44647 -0.636616,-0.748821 -1.4256,-1.12678 -2.36457,-1.12678 -0.995672,0 -1.82008,0.382678 -2.46615,1.14449 -0.647246,0.766538 -0.973231,1.93465 -0.973231,3.49726z"/>
   <path id="_3185440012345678910111213" class="fil1" d="M460.629 54.2765l6.36971 0 0 2.59843c0.922444,-1.0878 1.84371,-1.85434 2.7756,-2.31851 0.933074,-0.457088 2.06103,-0.686223 3.38387,-0.686223 1.41851,0 2.54056,0.251576 3.36497,0.754727 0.830318,0.504332 1.50591,1.25433 2.0315,2.25001 1.07126,-1.16221 2.04922,-1.95827 2.93623,-2.3752 0.882286,-0.418112 1.97008,-0.62953 3.26812,-0.62953 1.91221,0 3.40631,0.56575 4.47639,1.70552 1.07599,1.13268 1.60867,2.9067 1.60867,5.32325l0 11.1839 -6.83979 0 0 -10.1433c0,-0.806695 -0.154725,-1.4067 -0.47008,-1.79646 -0.457088,-0.611813 -1.02992,-0.922444 -1.71142,-0.922444 -0.80079,0 -1.45394,0.292914 -1.94528,0.870475 -0.492521,0.584648 -0.732286,1.51772 -0.732286,2.80395l0 9.18782 -6.84569 0 0 -9.81027c0,-0.785436 -0.0460631,-1.31103 -0.132284,-1.59213 -0.148819,-0.446458 -0.400395,-0.806695 -0.755908,-1.08189 -0.360237,-0.275198 -0.777168,-0.411025 -1.25906,-0.411025 -0.784254,0 -1.42441,0.296458 -1.92757,0.88583 -0.504332,0.595277 -0.755908,1.56851 -0.755908,2.91969l0 9.08861 -6.83979 0 0 -17.8052 0 0z"/>
  </g>
 </g>
</svg>
